0
SECTION
2
HEADER
9
$INSUNITS
70
4
9
$ACADVER
1
AC1014
9
$HANDSEED
5
FFFF
0
ENDSEC
0
SECTION
2
TABLES
0
TABLE
2
VPORT
5
8
100
AcDbSymbolTable
0
ENDTAB
0
TABLE
2
LTYPE
5
5
100
AcDbSymbolTable
0
LTYPE
5
14
100
AcDbSymbolTableRecord
100
AcDbLinetypeTableRecord
2
BYBLOCK
70
0
0
LTYPE
5
15
100
AcDbSymbolTableRecord
100
AcDbLinetypeTableRecord
2
BYLAYER
70
0
0
ENDTAB
0
TABLE
2
LAYER
5
2
100
AcDbSymbolTable
70
2
0
LAYER
5
50
100
AcDbSymbolTableRecord
100
AcDbLayerTableRecord
2
0
70
0
6
CONTINUOUS
0
ENDTAB
0
TABLE
2
STYLE
5
3
100
AcDbSymbolTable
70
1
0
STYLE
5
11
100
AcDbSymbolTableRecord
100
AcDbTextStyleTableRecord
2
STANDARD
70
0
0
ENDTAB
0
TABLE
2
VIEW
5
6
100
AcDbSymbolTable
70
0
0
ENDTAB
0
TABLE
2
UCS
5
7
100
AcDbSymbolTable
70
0
0
ENDTAB
0
TABLE
2
APPID
5
9
100
AcDbSymbolTable
70
2
0
APPID
5
12
100
AcDbSymbolTableRecord
100
AcDbRegAppTableRecord
2
ACAD
70
0
0
ENDTAB
0
TABLE
2
DIMSTYLE
5
A
100
AcDbSymbolTable
70
1
0
ENDTAB
0
TABLE
2
BLOCK_RECORD
5
1
100
AcDbSymbolTable
70
1
0
BLOCK_RECORD
5
1F
100
AcDbSymbolTableRecord
100
AcDbBlockTableRecord
2
*MODEL_SPACE
0
BLOCK_RECORD
5
1B
100
AcDbSymbolTableRecord
100
AcDbBlockTableRecord
2
*PAPER_SPACE
0
ENDTAB
0
ENDSEC
0
SECTION
2
BLOCKS
0
BLOCK
5
20
100
AcDbEntity
100
AcDbBlockBegin
2
*MODEL_SPACE
0
ENDBLK
5
21
100
AcDbEntity
100
AcDbBlockEnd
0
BLOCK
5
1C
100
AcDbEntity
100
AcDbBlockBegin
2
*PAPER_SPACE
0
ENDBLK
5
1D
100
AcDbEntity
100
AcDbBlockEnd
0
ENDSEC
0
SECTION
2
ENTITIES
0
CIRCLE
5
100
100
AcDbEntity
8
0
100
AcDbCircle
10
-224.00000011920926
20
232
30
0
40
2.9999999999999982
0
CIRCLE
5
101
100
AcDbEntity
8
0
100
AcDbCircle
10
-224.00000011920926
20
207.99999999999997
30
0
40
3.0000000000000004
0
LWPOLYLINE
5
102
100
AcDbEntity
8
0
100
AcDbPolyline
90
4
70
1
43
0.0
10
-62.49480079686024
20
231.5
10
-50.505199441558318
20
231.5
42
2.4201328815660297
10
-50.505199441558318
20
234.5
10
-62.494800796860247
20
234.49999999999994
42
2.4201328815660448
0
CIRCLE
5
103
100
AcDbEntity
8
0
100
AcDbCircle
10
-83.000000119209275
20
226.5
30
0
40
2.0000000000000018
0
CIRCLE
5
104
100
AcDbEntity
8
0
100
AcDbCircle
10
-235.00000011920929
20
232
30
0
40
3.0000000000000027
0
LWPOLYLINE
5
105
100
AcDbEntity
8
0
100
AcDbPolyline
90
4
70
1
43
0.0
10
-34.00000011920929
20
205.5
10
-12.000000119209295
20
205.5
10
-12.000000119209302
20
208.49999999999997
10
-34.000000119209297
20
208.5
0
CIRCLE
5
106
100
AcDbEntity
8
0
100
AcDbCircle
10
-235.00000011920929
20
207.99999999999997
30
0
40
3.0000000000000004
0
LWPOLYLINE
5
107
100
AcDbEntity
8
0
100
AcDbPolyline
90
4
70
1
43
0.0
10
-62.49480079686024
20
205.5
10
-50.505199441558318
20
205.5
42
2.4201328815660448
10
-50.505199441558332
20
208.49999999999997
10
-62.494800796860247
20
208.49999999999997
42
2.4201328815660541
0
LWPOLYLINE
5
108
100
AcDbEntity
8
0
100
AcDbPolyline
90
4
70
1
43
0.0
10
-142.00000011920929
20
210
10
-102.00000011920928
20
210
42
0.99999999999999989
10
-102.00000011920928
20
222.99999999999997
10
-142.00000011920929
20
222.99999999999997
42
0.99999999999999989
0
CIRCLE
5
109
100
AcDbEntity
8
0
100
AcDbCircle
10
-83.000000119209275
20
213.49999999999997
30
0
40
1.9999999999999996
0
CIRCLE
5
110
100
AcDbEntity
8
0
100
AcDbCircle
10
-229.50000011920929
20
219.99999999999997
30
-1.2325951644078309e-31
40
3.0000000000000004
0
LWPOLYLINE
5
111
100
AcDbEntity
8
0
100
AcDbPolyline
90
4
70
1
43
0.0
10
-34.000000119209297
20
231.5
10
-12.000000119209295
20
231.5
10
-12.000000119209302
20
234.5
10
-34.000000119209297
20
234.5
0
LWPOLYLINE
5
112
100
AcDbEntity
8
0
100
AcDbPolyline
90
4
70
1
43
0.0
10
-39.00000011920929
20
210
10
-36.00000011920929
20
210
10
-36.000000119209297
20
230
10
-39.00000011920929
20
230
0
LWPOLYLINE
5
113
100
AcDbEntity
8
0
100
AcDbPolyline
90
4
70
1
43
0.0
10
-92.000000119209275
20
210
10
-89.00000011920929
20
210
10
-89.00000011920929
20
230
10
-92.000000119209275
20
230
0
LWPOLYLINE
5
114
100
AcDbEntity
8
0
100
AcDbPolyline
90
4
70
1
43
0.0
10
-155.00000011920929
20
210
10
-152.00000011920929
20
210
10
-152.00000011920929
20
230
10
-155.00000011920929
20
229.99999999999997
0
LWPOLYLINE
5
115
100
AcDbEntity
8
0
100
AcDbPolyline
90
4
70
1
43
0.0
10
-218.00000011920929
20
209.99999999999997
10
-215.00000011920929
20
209.99999999999997
10
-215.00000011920929
20
229.99999999999997
10
-218.00000011920929
20
229.99999999999997
0
CIRCLE
5
116
100
AcDbEntity
8
0
100
AcDbCircle
10
-16.000000119209297
20
220
30
0
40
5
0
LWPOLYLINE
5
117
100
AcDbEntity
8
0
100
AcDbPolyline
90
6
70
1
43
0.0
10
-3.0000001192092993
20
240
42
-0.41421356237309459
10
-1.1920929854358775e-07
20
237
10
-1.1920928244535389e-07
20
200
10
-250.00000011920929
20
199.99999999999997
10
-250.00000011920929
20
236.99999999999994
42
-0.41421356237308116
10
-247.00000011920929
20
239.99999999999997
0
LWPOLYLINE
5
118
100
AcDbEntity
8
0
100
AcDbPolyline
90
4
70
1
43
0.0
10
-12.000000119209311
20
274.5
10
-34.000000119209304
20
274.5
10
-34.000000119209304
20
271.5
10
-12.0000001192093
20
271.5
0
LWPOLYLINE
5
119
100
AcDbEntity
8
0
100
AcDbPolyline
90
4
70
1
43
0.0
10
-12.000000119209302
20
248.5
10
-34.000000119209297
20
248.5
10
-34.000000119209297
20
245.5
10
-12.0000001192093
20
245.5
0
CIRCLE
5
120
100
AcDbEntity
8
0
100
AcDbCircle
10
-224.00000011920926
20
272
30
4.9303806576313238e-31
40
2.9999999999999982
0
CIRCLE
5
121
100
AcDbEntity
8
0
100
AcDbCircle
10
-224.00000011920926
20
247.99999999999997
30
2.2186712959340957e-30
40
3.0000000000000004
0
LWPOLYLINE
5
122
100
AcDbEntity
8
0
100
AcDbPolyline
90
4
70
1
43
0.0
10
-62.494800796860247
20
271.5
10
-50.505199441558332
20
271.5
42
2.420132881566019
10
-50.505199441558332
20
274.5
10
-62.494800796860261
20
274.5
42
2.4201328815660235
0
CIRCLE
5
123
100
AcDbEntity
8
0
100
AcDbCircle
10
-83.000000119209275
20
266.5
30
8.6281661508548166e-31
40
2.0000000000000018
0
CIRCLE
5
124
100
AcDbEntity
8
0
100
AcDbCircle
10
-235.00000011920929
20
272
30
4.9303806576313238e-31
40
3.0000000000000027
0
CIRCLE
5
125
100
AcDbEntity
8
0
100
AcDbCircle
10
-235.00000011920929
20
247.99999999999997
30
2.2186712959340957e-30
40
3.0000000000000004
0
LWPOLYLINE
5
126
100
AcDbEntity
8
0
100
AcDbPolyline
90
4
70
1
43
0.0
10
-62.494800796860247
20
245.5
10
-50.505199441558332
20
245.5
42
2.4201328815660341
10
-50.505199441558339
20
248.5
10
-62.494800796860261
20
248.49999999999997
42
2.4201328815660541
0
LWPOLYLINE
5
127
100
AcDbEntity
8
0
100
AcDbPolyline
90
4
70
1
43
0.0
10
-142.00000011920929
20
250
10
-102.00000011920928
20
250
42
0.99999999999999989
10
-102.00000011920928
20
263
10
-142.00000011920929
20
263
42
0.99999999999999989
0
CIRCLE
5
128
100
AcDbEntity
8
0
100
AcDbCircle
10
-83.000000119209275
20
253.49999999999997
30
1.8488927466117464e-30
40
1.9999999999999996
0
CIRCLE
5
129
100
AcDbEntity
8
0
100
AcDbCircle
10
-229.50000011920929
20
260
30
1.355854680848614e-30
40
3.0000000000000004
0
LWPOLYLINE
5
130
100
AcDbEntity
8
0
100
AcDbPolyline
90
4
70
1
43
0.0
10
-39.000000119209297
20
270
10
-39.000000119209297
20
250
10
-36.00000011920929
20
250
10
-36.000000119209297
20
270
0
CIRCLE
5
131
100
AcDbEntity
8
0
100
AcDbCircle
10
-16.0000001192093
20
260
30
1.355854680848614e-30
40
5
0
LWPOLYLINE
5
132
100
AcDbEntity
8
0
100
AcDbPolyline
90
4
70
1
43
0.0
10
-155.00000011920929
20
270
10
-155.00000011920929
20
250
10
-152.00000011920929
20
250
10
-152.00000011920929
20
270
0
LWPOLYLINE
5
133
100
AcDbEntity
8
0
100
AcDbPolyline
90
4
70
1
43
0.0
10
-218.00000011920929
20
270
10
-218.00000011920929
20
250
10
-215.00000011920929
20
250
10
-215.00000011920929
20
270
0
LWPOLYLINE
5
134
100
AcDbEntity
8
0
100
AcDbPolyline
90
4
70
1
43
0.0
10
-92.000000119209275
20
270
10
-92.000000119209275
20
250
10
-89.00000011920929
20
250
10
-89.00000011920929
20
270
0
LWPOLYLINE
5
135
100
AcDbEntity
8
0
100
AcDbPolyline
90
6
70
1
43
0.0
10
-247.00000011920929
20
279.99999999999994
10
-3.0000001192093033
20
280.00000000000006
42
-0.41421356237309853
10
-1.1920930251967089e-07
20
277
10
-1.1920928244535389e-07
20
240
10
-250.00000011920929
20
240
10
-250.00000011920923
20
277
42
-0.41421356237309503
0
LWPOLYLINE
5
136
100
AcDbEntity
8
0
100
AcDbPolyline
90
4
70
1
43
0.0
10
-244.00000011920929
20
209.99999999999997
10
-241.00000011920929
20
209.99999999999997
10
-241.00000011920929
20
229.99999999999997
10
-244.00000011920929
20
229.99999999999997
0
LWPOLYLINE
5
137
100
AcDbEntity
8
0
100
AcDbPolyline
90
4
70
1
43
0.0
10
-244.00000011920929
20
269.99999999999994
10
-244.00000011920929
20
249.99999999999997
10
-241.00000011920929
20
250
10
-241.00000011920929
20
270
0
LWPOLYLINE
5
138
100
AcDbEntity
8
0
100
AcDbPolyline
90
4
70
1
43
0.0
10
-6.0000001192092931
20
230
10
-6.0000001192092913
20
210
10
-3.0000001192092913
20
210
10
-3.000000119209294
20
230
0
LWPOLYLINE
5
139
100
AcDbEntity
8
0
100
AcDbPolyline
90
4
70
1
43
0.0
10
-3.0000001192092958
20
250
10
-3.000000119209298
20
270
10
-6.0000001192092975
20
270
10
-6.0000001192092958
20
250
0
LWPOLYLINE
5
140
100
AcDbEntity
8
0
100
AcDbPolyline
90
4
70
1
43
0.0
10
-205.00000011920929
20
210
10
-165.00000011920929
20
210
42
0.99999999999999989
10
-165.00000011920929
20
222.99999999999997
10
-205.00000011920929
20
222.99999999999997
42
0.99999999999999989
0
LWPOLYLINE
5
141
100
AcDbEntity
8
0
100
AcDbPolyline
90
4
70
1
43
0.0
10
-205.00000011920929
20
250
10
-165.00000011920929
20
250
42
0.99999999999999989
10
-165.00000011920929
20
263
10
-205.00000011920929
20
263
42
0.99999999999999989
0
ENDSEC
0
SECTION
2
OBJECTS
0
DICTIONARY
5
C
100
AcDbDictionary
3
ACAD_GROUP
350
D
3
ACAD_MLINESTYLE
350
17
0
DICTIONARY
5
D
100
AcDbDictionary
0
DICTIONARY
5
1A
330
C
100
AcDbDictionary
0
DICTIONARY
5
17
100
AcDbDictionary
0
ENDSEC
0
EOF
