0
SECTION
2
HEADER
9
$INSUNITS
70
4
9
$ACADVER
1
AC1014
9
$HANDSEED
5
FFFF
0
ENDSEC
0
SECTION
2
TABLES
0
TABLE
2
VPORT
5
8
100
AcDbSymbolTable
0
ENDTAB
0
TABLE
2
LTYPE
5
5
100
AcDbSymbolTable
0
LTYPE
5
14
100
AcDbSymbolTableRecord
100
AcDbLinetypeTableRecord
2
BYBLOCK
70
0
0
LTYPE
5
15
100
AcDbSymbolTableRecord
100
AcDbLinetypeTableRecord
2
BYLAYER
70
0
0
ENDTAB
0
TABLE
2
LAYER
5
2
100
AcDbSymbolTable
70
2
0
LAYER
5
50
100
AcDbSymbolTableRecord
100
AcDbLayerTableRecord
2
0
70
0
6
CONTINUOUS
0
ENDTAB
0
TABLE
2
STYLE
5
3
100
AcDbSymbolTable
70
1
0
STYLE
5
11
100
AcDbSymbolTableRecord
100
AcDbTextStyleTableRecord
2
STANDARD
70
0
0
ENDTAB
0
TABLE
2
VIEW
5
6
100
AcDbSymbolTable
70
0
0
ENDTAB
0
TABLE
2
UCS
5
7
100
AcDbSymbolTable
70
0
0
ENDTAB
0
TABLE
2
APPID
5
9
100
AcDbSymbolTable
70
2
0
APPID
5
12
100
AcDbSymbolTableRecord
100
AcDbRegAppTableRecord
2
ACAD
70
0
0
ENDTAB
0
TABLE
2
DIMSTYLE
5
A
100
AcDbSymbolTable
70
1
0
ENDTAB
0
TABLE
2
BLOCK_RECORD
5
1
100
AcDbSymbolTable
70
1
0
BLOCK_RECORD
5
1F
100
AcDbSymbolTableRecord
100
AcDbBlockTableRecord
2
*MODEL_SPACE
0
BLOCK_RECORD
5
1B
100
AcDbSymbolTableRecord
100
AcDbBlockTableRecord
2
*PAPER_SPACE
0
ENDTAB
0
ENDSEC
0
SECTION
2
BLOCKS
0
BLOCK
5
20
100
AcDbEntity
100
AcDbBlockBegin
2
*MODEL_SPACE
0
ENDBLK
5
21
100
AcDbEntity
100
AcDbBlockEnd
0
BLOCK
5
1C
100
AcDbEntity
100
AcDbBlockBegin
2
*PAPER_SPACE
0
ENDBLK
5
1D
100
AcDbEntity
100
AcDbBlockEnd
0
ENDSEC
0
SECTION
2
ENTITIES
0
LWPOLYLINE
5
100
100
AcDbEntity
8
0
100
AcDbPolyline
90
4
70
1
43
0.0
10
-98.000007629394545
20
30.333333214124014
10
-95.000007629394531
20
30.333333214124014
10
-95.000007629394517
20
53.666666547457361
10
-98.000007629394545
20
53.666666547457361
0
LWPOLYLINE
5
101
100
AcDbEntity
8
0
100
AcDbPolyline
90
4
70
1
43
0.0
10
-214.00000762939453
20
30.333333214124035
10
-211.00000762939453
20
30.333333214124035
10
-211.00000762939453
20
53.666666547457382
10
-214.00000762939453
20
53.666666547457389
0
LWPOLYLINE
5
102
100
AcDbEntity
8
0
100
AcDbPolyline
90
52
70
1
43
0.0
10
-32.000007629394531
20
73.666666547457353
10
-32.000007629394531
20
83.999999880790668
10
-9.0000076293945241
20
83.999999880790668
10
-9.0000076293945241
20
73.666666547457339
10
-6.0000076293945188
20
73.666666547457353
10
-6.000007629394517
20
83.999999880790668
10
-7.6293945229248774e-06
20
83.999999880790668
10
-7.6293945383554274e-06
20
-1.1920933462583605e-07
10
-6.0000076293945188
20
-1.1920933351561303e-07
10
-6.000007629394517
20
10.333333214123996
10
-9.0000076293945224
20
10.333333214123998
10
-9.0000076293945241
20
-1.1920933052419489e-07
10
-32.000007629394531
20
-1.1920932907472093e-07
10
-32.000007629394531
20
10.333333214124
10
-35.000007629394538
20
10.333333214124004
10
-35.000007629394538
20
-1.1920932566364299e-07
10
-95.000007629394531
20
-1.1920931575204463e-07
10
-95.000007629394531
20
10.333333214124014
10
-98.000007629394545
20
10.333333214124016
10
-98.000007629394545
20
-1.1920931400630155e-07
10
-158.00000762939453
20
-1.1920930242936834e-07
10
-158.00000762939456
20
10.333333214124028
10
-161.00000762939456
20
10.333333214124028
10
-161.00000762939456
20
-1.1920930273243598e-07
10
-211.00000762939453
20
-1.1920929354758414e-07
10
-211.00000762939453
20
10.333333214124035
10
-214.00000762939453
20
10.333333214124035
10
-214.00000762939453
20
-1.1920929299247374e-07
10
-244.00000762939453
20
-1.1920928910669204e-07
10
-244.00000762939453
20
10.333333214124041
10
-247.00000762939453
20
10.333333214124043
10
-247.00000762939453
20
-1.1920928688222683e-07
10
-250.0000076293945
20
-1.1920928244535389e-07
10
-250.0000076293945
20
83.999999880790725
10
-247.00000762939453
20
83.99999988079071
10
-247.00000762939453
20
73.666666547457396
10
-244.00000762939453
20
73.666666547457396
10
-244.00000762939453
20
83.99999988079071
10
-214.00000762939453
20
83.99999988079071
10
-214.00000762939453
20
73.666666547457382
10
-211.00000762939453
20
73.666666547457396
10
-211.00000762939453
20
83.99999988079071
10
-161.00000762939453
20
83.999999880790682
10
-161.00000762939453
20
73.666666547457368
10
-158.00000762939453
20
73.666666547457368
10
-158.00000762939453
20
83.999999880790682
10
-98.000007629394531
20
83.999999880790668
10
-98.000007629394531
20
73.666666547457368
10
-95.000007629394517
20
73.666666547457353
10
-95.000007629394531
20
83.999999880790682
10
-35.000007629394538
20
83.999999880790668
10
-35.000007629394538
20
73.666666547457353
0
LWPOLYLINE
5
103
100
AcDbEntity
8
0
100
AcDbPolyline
90
4
70
1
43
0.0
10
-161.00000762939453
20
30.333333214124025
10
-158.00000762939453
20
30.333333214124025
10
-158.00000762939453
20
53.666666547457368
10
-161.00000762939456
20
53.666666547457368
0
LWPOLYLINE
5
104
100
AcDbEntity
8
0
100
AcDbPolyline
90
4
70
1
43
0.0
10
-35.000007629394538
20
30.333333214124
10
-32.000007629394531
20
30.333333214124
10
-32.000007629394531
20
53.666666547457353
10
-35.000007629394531
20
53.666666547457353
0
LWPOLYLINE
5
105
100
AcDbEntity
8
0
100
AcDbPolyline
90
4
70
1
43
0.0
10
-256.00000762939499
20
69.999999880790483
10
-256.00000762939493
20
48.91053480380512
42
0.95626746150727759
10
-252.00000762939496
20
48.910534803805128
10
-252.00000762939504
20
69.999999880790511
42
0.99999999999999989
0
LWPOLYLINE
5
106
100
AcDbEntity
8
0
100
AcDbPolyline
90
4
70
1
43
0.0
10
-252.00000762939482
20
19.999999880790597
42
-0.99999999999999989
10
-256.00000762939482
20
19.999999880790629
10
-256.00000762939487
20
40.99999988079059
42
-0.99999999999999989
10
-252.00000762939487
20
40.999999880790568
0
CIRCLE
5
107
100
AcDbEntity
8
0
100
AcDbCircle
10
-260.00000762939476
20
9.9999998807906341
30
3.8518598887744717e-33
40
5.9999999999999929
0
CIRCLE
5
108
100
AcDbEntity
8
0
100
AcDbCircle
10
-260.00000762939504
20
79.99999988079044
30
0
40
5.9999999999999911
0
LWPOLYLINE
5
109
100
AcDbEntity
8
0
100
AcDbPolyline
90
20
70
1
43
0.0
10
-287.00000762939476
20
33.333333214123812
10
-290.00000762939476
20
33.333333214123805
10
-290.00000762939487
20
56.666666547457083
10
-287.00000762939487
20
56.666666547457098
10
-287.00000762939499
20
76.666666547457055
10
-290.00000762939499
20
76.666666547457055
10
-290.00000762939499
20
86.999999880790341
10
-280.00000762939504
20
86.999999880790369
10
-280.00000762939504
20
89.999999880790384
10
-260.0000076293951
20
89.999999880790455
10
-260.0000076293951
20
86.99999988079044
10
-250.00000762939507
20
86.999999880790455
10
-250.00000762939479
20
2.999999880790694
10
-260.0000076293947
20
2.9999998807906532
10
-260.0000076293947
20
-1.192093377001992e-07
10
-280.0000076293947
20
-1.1920941012100172e-07
10
-280.0000076293947
20
2.9999998807905808
10
-290.0000076293947
20
2.999999880790547
10
-290.0000076293947
20
13.333333214123851
10
-287.0000076293947
20
13.333333214123863
0
LWPOLYLINE
5
110
100
AcDbEntity
8
0
100
AcDbPolyline
90
9
70
1
43
0.0
10
-287.00000762939499
20
92.999999880791634
10
-287.00000762939493
20
86.999999880791563
10
-290.00000762939487
20
86.999999880791563
10
-290.00000762939487
20
83.999999880791535
10
-299.00000762939493
20
83.99999988079152
10
-299.00000762939499
20
101.99999988079173
42
-0.41421356237309853
10
-290.00000762939499
20
110.99999988079185
10
-264.00000762939487
20
110.99999988079185
10
-264.00000762939487
20
92.999999880791663
0
LWPOLYLINE
5
111
100
AcDbEntity
8
0
100
AcDbPolyline
90
9
70
1
43
0.0
10
-270.00000762939447
20
122.99999988079939
10
-264.00000762939447
20
122.99999988079938
10
-264.00000762939447
20
119.99999988079936
10
-261.00000762939442
20
119.99999988079936
10
-261.00000762939442
20
110.99999988079941
10
-279.00000762939447
20
110.99999988079942
42
-0.41421356237309737
10
-288.00000762939447
20
119.99999988079944
10
-288.00000762939442
20
145.99999988079938
10
-270.00000762939447
20
145.99999988079932
0
CIRCLE
5
112
100
AcDbEntity
8
0
100
AcDbCircle
10
-251.00000762939453
20
110.99999988079018
30
1.1894543336535569e-29
40
3.7499999999999876
0
LWPOLYLINE
5
113
100
AcDbEntity
8
0
100
AcDbPolyline
90
6
70
1
43
0.0
10
-238.00000762939462
20
111.99999988079014
42
-0.41421356237309442
10
-247.00000762939459
20
102.99999988079023
10
-252.00000762939453
20
102.99999988079026
42
-0.41421356237309737
10
-261.00000762939453
20
111.99999988079021
10
-261.00000762939453
20
123.99999988079014
10
-238.00000762939464
20
123.99999988079009
0
LWPOLYLINE
5
114
100
AcDbEntity
8
0
100
AcDbPolyline
90
9
70
1
43
0.0
10
-244.0000076293947
20
95.999999880790682
10
-238.0000076293947
20
95.999999880790682
10
-238.00000762939473
20
118.99999988079068
10
-220.00000762939462
20
118.99999988079068
10
-220.00000762939464
20
92.99999988079071
42
-0.41421356237309681
10
-229.0000076293947
20
83.999999880790682
10
-247.00000762939476
20
83.999999880790682
10
-247.00000762939476
20
92.999999880790682
10
-244.00000762939473
20
92.999999880790668
0
LWPOLYLINE
5
115
100
AcDbEntity
8
0
100
AcDbPolyline
90
4
70
1
43
0.0
10
-200.00000762939464
20
117.99999988079063
10
-178.9105425524092
20
117.99999988079063
42
0.95626746150730546
10
-178.9105425524092
20
121.99999988079064
10
-200.00000762939464
20
121.99999988079064
42
0.99999999999999989
0
LWPOLYLINE
5
116
100
AcDbEntity
8
0
100
AcDbPolyline
90
4
70
1
43
0.0
10
-150.00000762939459
20
121.99999988079064
42
-0.99999999999999989
10
-150.00000762939462
20
117.99999988079063
10
-171.00000762939456
20
117.99999988079063
42
-0.99999999999999989
10
-171.00000762939462
20
121.99999988079064
0
CIRCLE
5
117
100
AcDbEntity
8
0
100
AcDbCircle
10
-140.00000762939459
20
113.9999998807906
30
2.9582283945787943e-30
40
6.0000000000000151
0
CIRCLE
5
118
100
AcDbEntity
8
0
100
AcDbCircle
10
-210.00000762939467
20
113.99999988079061
30
2.9582283945787943e-30
40
6.0000000000000133
0
LWPOLYLINE
5
119
100
AcDbEntity
8
0
100
AcDbPolyline
90
20
70
1
43
0.0
10
-163.33334096272796
20
86.999999880790639
10
-163.33334096272796
20
83.999999880790625
10
-186.66667429606133
20
83.999999880790611
10
-186.66667429606133
20
86.999999880790625
10
-206.66667429606136
20
86.999999880790625
10
-206.66667429606139
20
83.999999880790611
10
-217.0000076293947
20
83.999999880790611
10
-217.00000762939467
20
93.999999880790611
10
-220.00000762939467
20
93.999999880790611
10
-220.0000076293947
20
113.99999988079061
10
-217.0000076293947
20
113.99999988079061
10
-217.00000762939467
20
123.99999988079061
10
-133.00000762939459
20
123.99999988079063
10
-133.00000762939459
20
113.99999988079065
10
-130.00000762939459
20
113.99999988079063
10
-130.00000762939459
20
93.999999880790625
10
-133.00000762939459
20
93.999999880790625
10
-133.00000762939459
20
83.999999880790625
10
-143.33334096272793
20
83.999999880790625
10
-143.33334096272796
20
86.999999880790639
0
LWPOLYLINE
5
120
100
AcDbEntity
8
0
100
AcDbPolyline
90
4
70
1
43
0.0
10
-50.00000762939456
20
116.99999988079072
10
-50.00000762939456
20
93.999999880790426
10
-47.00000762939456
20
93.99999988079044
10
-47.000007629394567
20
116.99999988079074
0
LWPOLYLINE
5
121
100
AcDbEntity
8
0
100
AcDbPolyline
90
4
70
1
43
0.0
10
-80.000007629394574
20
93.999999880790241
10
-80.000007629394574
20
116.99999988079055
10
-83.000007629394588
20
116.99999988079054
10
-83.000007629394588
20
93.999999880790227
0
LWPOLYLINE
5
122
100
AcDbEntity
8
0
100
AcDbPolyline
90
4
70
1
43
0.0
10
-95.000007629394588
20
92.499999880790199
10
-104.00000762939459
20
92.499999880790142
10
-104.00000762939459
20
89.499999880790114
10
-95.000007629394588
20
89.499999880790156
0
LWPOLYLINE
5
123
100
AcDbEntity
8
0
100
AcDbPolyline
90
4
70
1
43
0.0
10
-35.00000762939456
20
115.49999988079085
10
-26.000007629394553
20
115.49999988079091
10
-26.000007629394553
20
118.49999988079094
10
-35.00000762939456
20
118.4999998807909
0
LWPOLYLINE
5
124
100
AcDbEntity
8
0
100
AcDbPolyline
90
4
70
1
43
0.0
10
-117.00000762939462
20
100.99999988079017
10
-117.00000762939462
20
106.99999988079026
10
-123.00000762939462
20
106.99999988079021
10
-123.00000762939463
20
100.99999988079013
0
LWPOLYLINE
5
125
100
AcDbEntity
8
0
100
AcDbPolyline
90
4
70
1
43
0.0
10
-13.000007629394528
20
106.99999988079088
10
-13.000007629394528
20
100.9999998807908
10
-7.0000076293945135
20
100.99999988079084
10
-7.0000076293945082
20
106.99999988079092
0
LWPOLYLINE
5
126
100
AcDbEntity
8
0
100
AcDbPolyline
90
20
70
1
43
0.0
10
-107.0000076293946
20
83.99999988079
10
-107.0000076293946
20
93.999999880790142
10
-130.00000762939462
20
93.99999988079
10
-130.00000762939462
20
113.99999988079026
10
-107.0000076293946
20
113.9999998807904
10
-107.0000076293946
20
123.99999988079054
10
-96.666674296061274
20
123.99999988079061
10
-96.666674296061274
20
120.99999988079055
10
-76.666674296061245
20
120.99999988079068
10
-76.666674296061245
20
123.99999988079072
10
-53.333340962727874
20
123.99999988079087
10
-53.333340962727874
20
120.99999988079082
10
-33.33334096272786
20
120.99999988079094
10
-33.333340962727867
20
123.99999988079099
10
-23.000007629394545
20
123.99999988079105
10
-23.000007629394531
20
113.99999988079091
10
-7.6293945028282906e-06
20
113.99999988079105
10
-7.6293945161509669e-06
20
93.999999880790796
10
-23.000007629394545
20
93.999999880790654
10
-23.000007629394545
20
83.999999880790526
0
LWPOLYLINE
5
127
100
AcDbEntity
8
0
100
AcDbPolyline
90
4
70
1
43
0.0
10
-35.00000762939456
20
89.49999988079054
10
-26.000007629394553
20
89.499999880790583
10
-26.000007629394553
20
92.499999880790611
10
-35.00000762939456
20
92.499999880790554
0
LWPOLYLINE
5
128
100
AcDbEntity
8
0
100
AcDbPolyline
90
4
70
1
43
0.0
10
-95.000007629394588
20
118.49999988079054
10
-104.00000762939459
20
118.49999988079048
10
-104.00000762939459
20
115.49999988079044
10
-95.000007629394588
20
115.4999998807905
0
LWPOLYLINE
5
129
100
AcDbEntity
8
0
100
AcDbPolyline
90
4
70
1
43
0.0
10
-70.000007629394958
20
157.99999988079119
10
-48.91054255240941
20
157.99999988079119
42
0.95626746150729414
10
-48.910542552409417
20
161.99999988079122
10
-70.000007629394972
20
161.99999988079122
42
0.99999999999999989
0
LWPOLYLINE
5
130
100
AcDbEntity
8
0
100
AcDbPolyline
90
4
70
1
43
0.0
10
-20.000007629394641
20
161.99999988079122
42
-0.99999999999999989
10
-20.000007629394666
20
157.99999988079119
10
-41.000007629394801
20
157.99999988079119
42
-0.99999999999999989
10
-41.000007629394787
20
161.99999988079122
0
CIRCLE
5
131
100
AcDbEntity
8
0
100
AcDbCircle
10
-10.000007629394599
20
153.99999988079117
30
-9.8607613152626476e-31
40
6.0000000000000462
0
CIRCLE
5
132
100
AcDbEntity
8
0
100
AcDbCircle
10
-80.000007629395043
20
153.99999988079119
30
-3.0198581527991858e-30
40
6.0000000000000444
0
LWPOLYLINE
5
133
100
AcDbEntity
8
0
100
AcDbPolyline
90
20
70
1
43
0.0
10
-33.33334096272808
20
126.99999988079121
10
-33.33334096272808
20
123.99999988079119
10
-56.666674296061579
20
123.99999988079119
10
-56.666674296061586
20
126.99999988079121
10
-76.666674296061714
20
126.99999988079121
10
-76.666674296061714
20
123.99999988079119
10
-87.0000076293951
20
123.99999988079119
10
-87.0000076293951
20
133.99999988079119
10
-90.000007629395128
20
133.99999988079119
10
-90.000007629395128
20
153.99999988079119
10
-87.0000076293951
20
153.99999988079122
10
-87.000007629395085
20
163.99999988079122
10
-3.0000076293945606
20
163.99999988079119
10
-3.0000076293945561
20
153.99999988079119
10
-7.6293945384252212e-06
20
153.99999988079119
10
-7.6293945383554274e-06
20
133.99999988079119
10
-3.0000076293945561
20
133.99999988079119
10
-3.000007629394561
20
123.99999988079119
10
-13.333340962727958
20
123.99999988079119
10
-13.333340962727958
20
126.99999988079121
0
LWPOLYLINE
5
134
100
AcDbEntity
8
0
100
AcDbPolyline
90
4
70
1
43
0.0
10
-110.00000762939528
20
129.99999988079065
10
-131.08947270638066
20
129.99999988079065
42
0.95626746150728881
10
-131.08947270638066
20
125.99999988079064
10
-110.00000762939528
20
125.99999988079065
42
0.99999999999999989
0
LWPOLYLINE
5
135
100
AcDbEntity
8
0
100
AcDbPolyline
90
4
70
1
43
0.0
10
-160.00000762939516
20
125.99999988079065
42
-0.99999999999999989
10
-160.00000762939516
20
129.99999988079065
10
-139.00000762939518
20
129.99999988079065
42
-0.99999999999999989
10
-139.00000762939521
20
125.99999988079065
0
CIRCLE
5
136
100
AcDbEntity
8
0
100
AcDbCircle
10
-170.00000762939516
20
133.99999988079071
30
-2.3172789090867222e-29
40
6.0000000000000071
0
CIRCLE
5
137
100
AcDbEntity
8
0
100
AcDbCircle
10
-100.0000076293953
20
133.99999988079065
30
-2.3049529574426439e-29
40
6.0000000000000053
0
LWPOLYLINE
5
138
100
AcDbEntity
8
0
100
AcDbPolyline
90
20
70
1
43
0.0
10
-146.66667429606184
20
160.99999988079065
10
-146.66667429606184
20
163.99999988079065
10
-123.33334096272856
20
163.99999988079065
10
-123.33334096272857
20
160.99999988079065
10
-103.33334096272861
20
160.99999988079065
10
-103.33334096272861
20
163.99999988079065
10
-93.000007629395313
20
163.99999988079065
10
-93.000007629395313
20
153.99999988079065
10
-90.000007629395299
20
153.99999988079065
10
-90.000007629395299
20
133.99999988079065
10
-93.000007629395313
20
133.99999988079065
10
-93.000007629395299
20
123.99999988079063
10
-177.00000762939513
20
123.99999988079067
10
-177.0000076293951
20
133.99999988079065
10
-180.0000076293951
20
133.99999988079065
10
-180.0000076293951
20
153.99999988079065
10
-177.0000076293951
20
153.99999988079065
10
-177.00000762939513
20
163.99999988079065
10
-166.66667429606181
20
163.99999988079065
10
-166.66667429606181
20
160.99999988079065
0
LWPOLYLINE
5
139
100
AcDbEntity
8
0
100
AcDbPolyline
90
4
70
1
43
0.0
10
-202.00000762939499
20
150.99999988078952
10
-202.00000762939499
20
127.99999988078952
42
0.99999999999999989
10
-198.00000762939499
20
127.99999988078952
10
-198.00000762939499
20
150.99999988078952
42
0.99999999999999989
0
LWPOLYLINE
5
140
100
AcDbEntity
8
0
100
AcDbPolyline
90
4
70
1
43
0.0
10
-206.00000762939499
20
129.99999988078952
10
-221.08947270638041
20
129.99999988078952
42
0.95626746150728881
10
-221.08947270638041
20
125.99999988078952
10
-206.00000762939499
20
125.99999988078952
42
0.99999999999999989
0
LWPOLYLINE
5
141
100
AcDbEntity
8
0
100
AcDbPolyline
90
4
70
1
43
0.0
10
-250.0000076293949
20
125.99999988078952
42
-0.99999999999999989
10
-250.00000762939496
20
129.99999988078955
10
-229.00000762939499
20
129.99999988078955
42
-0.99999999999999989
10
-229.00000762939499
20
125.99999988078952
0
CIRCLE
5
142
100
AcDbEntity
8
0
100
AcDbCircle
10
-260.00000762939499
20
133.99999988078957
30
-4.3140830754274083e-31
40
6.0000000000000071
0
CIRCLE
5
143
100
AcDbEntity
8
0
100
AcDbCircle
10
-190.00000762939496
20
133.99999988078952
30
-2.4651903288156619e-31
40
6.0000000000000053
0
LWPOLYLINE
5
144
100
AcDbEntity
8
0
100
AcDbPolyline
90
8
70
1
43
0.0
10
-225.00000762939496
20
151.99999988078952
10
-225.00000762939496
20
155.99999988078952
42
0.41421356237309853
10
-228.00000762939499
20
158.99999988078952
10
-242.00000762939496
20
158.99999988078955
42
0.41421356237309503
10
-245.00000762939496
20
155.99999988078955
10
-245.00000762939496
20
151.99999988078955
42
0.41421356237309503
10
-242.00000762939496
20
148.99999988078952
10
-228.00000762939493
20
148.99999988078952
42
0.41421356237309503
0
LWPOLYLINE
5
145
100
AcDbEntity
8
0
100
AcDbPolyline
90
20
70
1
43
0.0
10
-236.66667429606161
20
160.99999988078957
10
-236.66667429606161
20
163.99999988078957
10
-213.33334096272824
20
163.99999988078957
10
-213.33334096272824
20
160.99999988078952
10
-193.33334096272824
20
160.99999988078952
10
-193.33334096272824
20
163.99999988078952
10
-183.00000762939493
20
163.99999988078952
10
-183.00000762939499
20
153.99999988078952
10
-180.00000762939496
20
153.99999988078952
10
-180.00000762939493
20
133.99999988078952
10
-183.00000762939499
20
133.99999988078952
10
-183.00000762939499
20
123.99999988078953
10
-267.00000762939499
20
123.99999988078955
10
-267.00000762939499
20
133.99999988078955
10
-270.00000762939493
20
133.99999988078955
10
-270.00000762939499
20
153.99999988078955
10
-267.00000762939499
20
153.99999988078957
10
-267.00000762939493
20
163.99999988078957
10
-256.66667429606161
20
163.99999988078957
10
-256.66667429606161
20
160.99999988078957
0
LWPOLYLINE
5
146
100
AcDbEntity
8
0
100
AcDbPolyline
90
9
70
1
43
0.0
10
-269.33334096272813
20
166.99999988078943
10
-269.33334096272813
20
172.99999988078946
10
-292.33334096272802
20
172.99999988078946
10
-292.33334096272807
20
190.99999988078952
10
-266.33334096272813
20
190.99999988078949
42
-0.41421356237309503
10
-257.33334096272819
20
181.99999988078952
10
-257.33334096272819
20
163.99999988078943
10
-266.33334096272813
20
163.99999988078943
10
-266.33334096272813
20
166.99999988078943
0
CIRCLE
5
147
100
AcDbEntity
8
0
100
AcDbCircle
10
-282.33334096272819
20
159.99999988079838
30
-6.1013460638187632e-30
40
3.7499999999999951
0
LWPOLYLINE
5
148
100
AcDbEntity
8
0
100
AcDbPolyline
90
6
70
1
43
0.0
10
-269.33334096272824
20
160.99999988079841
42
-0.41421356237309503
10
-278.33334096272824
20
151.99999988079841
10
-283.33334096272824
20
151.99999988079841
42
-0.4142135623730962
10
-292.33334096272824
20
160.99999988079844
10
-292.33334096272824
20
172.99999988079838
10
-269.33334096272824
20
172.99999988079838
0
LWPOLYLINE
5
149
100
AcDbEntity
8
0
100
AcDbPolyline
90
4
70
1
43
0.0
10
-247.00000762939453
20
30.333333214124039
10
-244.00000762939453
20
30.333333214124039
10
-244.00000762939453
20
53.666666547457389
10
-247.00000762939453
20
53.666666547457389
0
LWPOLYLINE
5
150
100
AcDbEntity
8
0
100
AcDbPolyline
90
4
70
1
43
0.0
10
-9.0000076293945241
20
30.333333214123996
10
-6.000007629394517
20
30.333333214123996
10
-6.000007629394517
20
53.666666547457346
10
-9.0000076293945206
20
53.666666547457346
0
ENDSEC
0
SECTION
2
OBJECTS
0
DICTIONARY
5
C
100
AcDbDictionary
3
ACAD_GROUP
350
D
3
ACAD_MLINESTYLE
350
17
0
DICTIONARY
5
D
100
AcDbDictionary
0
DICTIONARY
5
1A
330
C
100
AcDbDictionary
0
DICTIONARY
5
17
100
AcDbDictionary
0
ENDSEC
0
EOF
